# xmcd CD database file
# Copyright (C) 1993-1998 Ti Kan
#
# Track frame offsets:
#  182
#  14057
#  26437
#  38375
#  49202
#  61620
#  73795
#  84465
#  97737
#  110605
#  124957
#  145640
#  166920
#  179142
#  195002
#  208225
#  236352
#  250750
#  290712
#
# Disc length: 4068 seconds
#
# Revision: 2
# Processed by: cddbd v1.4b41PL1 Copyright (c) Steve Scherf et al.
# Submitted via: KiC 2.1 - (C) 1996-1998 Alwin Hoogerdijk
#
DISCID=040fe213
DTITLE=Marvin Gaye - The Marvin Gaye Collection Disc 1 - 20 Top 20's [CD3]
DYEAR=1900
DGENRE=
TTITLE0=Let Your Conscience By Your Guide
TTITLE1=Never Let You Go (Sha Lu Bop)
TTITLE2=It's Party Time
TTITLE3=Christmas Song
TTITLE4=Down And Under When You Limbo
TTITLE5=My Girl
TTITLE6=It's Not Unusual
TTITLE7=Sunny
TTITLE8=Sweeter As Days Go By
TTITLE9=Sweet Thing
TTITLE10=I Love You Secretly (aka My Last Chance)
TTITLE11=I Want To Come Home By Christmas
TTITLE12=5, 10, 15, 20 Years Of Love
TTITLE13=You're My Everything
TTITLE14=Come Get To This (Live)
TTITLE15=Distant Love (Live)
TTITLE16=Jan (Live)
TTITLE17=Medley" 60's Hits (Live)
TTITLE18=Star Spangled Banner (Live)
EXTD=
EXTT0=
EXTT1=
EXTT2=
EXTT3=
EXTT4=
EXTT5=
EXTT6=
EXTT7=
EXTT8=
EXTT9=
EXTT10=
EXTT11=
EXTT12=
EXTT13=
EXTT14=
EXTT15=
EXTT16=
EXTT17=
EXTT18=
PLAYORDER=
